<?xml version="1.0" encoding="utf-8"?>
<!-- Generator: Adobe Illustrator 23.0.3, SVG Export Plug-In . SVG Version: 6.00 Build 0)  -->
<svg version="1.1" id="Layer_1" xmlns="http://www.w3.org/2000/svg" xmlns:xlink="http://www.w3.org/1999/xlink" x="0px" y="0px"
	 viewBox="0 0 48.9 199.2" style="enable-background:new 0 0 48.9 199.2;" xml:space="preserve">
<style type="text/css">
	.st0{fill:#5C3327;}
	.st1{enable-background:new    ;}
	.st2{fill:#FFFFFF;}
</style>
<path class="st0" d="M48.9,199.2H11.3c-6.3,0-11.3-5.1-11.3-11.3V11.3C0,5.1,5.1,0,11.3,0h37.5V199.2z"/>
<g>
	<g class="st1">
		<path class="st2" d="M31.7,182.2l-0.4-2.6c-0.6-0.1-1.5-0.2-2.9-0.3c-1.4-0.1-2.4-0.1-3.2-0.1H22c-0.9,0-1.8,0-2.7,0.1
			c-0.9,0-1.5,0.1-2,0.2l-0.4,2.7h-0.1v-7.6c0-1.1,0.2-2,0.5-2.6c0.4-0.6,0.8-1.1,1.3-1.4s1.1-0.4,1.7-0.4c1,0,1.9,0.3,2.5,1
			c0.6,0.7,1,1.5,1,2.5h0c0-1,0.3-1.9,0.6-2.6c0.4-0.7,0.9-1.3,1.5-1.6c0.6-0.4,1.2-0.6,1.9-0.6c0.6,0,1.2,0.1,1.8,0.4
			c0.6,0.3,1.1,0.8,1.6,1.5c0.4,0.7,0.7,1.8,0.7,3v8.2H31.7z M17.1,175.4L17.1,175.4c0.1-0.7,0.3-1.4,0.5-1.9
			c0.3-0.5,0.7-0.9,1.2-1.2c0.5-0.3,1.1-0.4,1.7-0.4c0.6,0,1.1,0.1,1.6,0.3c0.5,0.2,0.8,0.5,1.1,0.9c0.3,0.4,0.4,0.7,0.5,1.1h0.1
			c-0.1-0.9-0.5-1.7-1.1-2.2c-0.6-0.5-1.4-0.8-2.2-0.8c-0.5,0-1,0.1-1.4,0.3c-0.4,0.2-0.8,0.4-1.1,0.7c-0.3,0.3-0.5,0.7-0.7,1.1
			c-0.1,0.4-0.2,0.9-0.2,1.4C17,174.9,17.1,175.1,17.1,175.4z M17.2,178.9h14.2v-0.7H17.2V178.9z M17.4,175.7c0,0.5,0,0.9,0.1,1.2
			c1.1,0.2,2.4,0.3,3.9,0.3c1.1,0,1.8,0,2.1-0.1c0.1-0.3,0.2-0.7,0.2-1.2c0-0.7-0.1-1.3-0.4-1.8c-0.2-0.5-0.6-1-1.1-1.3
			c-0.5-0.3-1.1-0.5-1.8-0.5c-0.6,0-1.1,0.1-1.5,0.3c-0.5,0.2-0.8,0.6-1.1,1.1C17.5,174.3,17.4,174.9,17.4,175.7z M24.1,174.3
			L24.1,174.3c0.2-0.6,0.4-1.2,0.7-1.7c0.3-0.5,0.7-0.9,1.3-1.3c0.5-0.3,1.2-0.5,1.9-0.5c0.6,0,1.2,0.1,1.7,0.4
			c0.5,0.3,1,0.7,1.3,1.3c0.3,0.6,0.5,1.3,0.5,2.2h0.1c0-0.1,0.1-0.3,0.1-0.6c0-0.9-0.2-1.6-0.5-2.2c-0.3-0.6-0.8-1.1-1.4-1.4
			c-0.6-0.3-1.2-0.5-1.8-0.5c-0.8,0-1.4,0.2-2,0.5c-0.6,0.3-1,0.8-1.4,1.4C24.3,172.6,24.1,173.4,24.1,174.3z M24.3,175.7
			c0,0.7,0,1.1,0.1,1.4c0.5,0.1,1.3,0.1,2.4,0.1c1.3,0,2.6,0,3.9-0.1c0.2-0.4,0.4-0.7,0.5-1.1s0.1-0.7,0.1-1.2
			c0-0.7-0.1-1.4-0.4-1.9c-0.2-0.5-0.6-1-1.1-1.3c-0.5-0.3-1.1-0.5-1.8-0.5c-0.7,0-1.4,0.2-1.9,0.5c-0.6,0.3-1,0.9-1.3,1.5
			C24.4,173.9,24.3,174.7,24.3,175.7z"/>
		<path class="st2" d="M16.6,158.8c0-1.5,0.2-2.7,0.7-3.8s1.1-1.9,1.9-2.6c0.8-0.7,1.6-1.2,2.5-1.5c0.9-0.3,1.7-0.5,2.5-0.5
			c0.9,0,1.8,0.2,2.7,0.5c0.9,0.4,1.7,0.9,2.5,1.6c0.7,0.7,1.3,1.6,1.8,2.6c0.4,1,0.7,2.2,0.7,3.5c0,1.8-0.4,3.4-1.2,4.7
			c-0.8,1.3-1.8,2.2-3,2.8c-1.2,0.6-2.3,0.9-3.4,0.9c-1,0-2-0.2-2.9-0.6s-1.8-0.9-2.5-1.7c-0.7-0.7-1.3-1.6-1.7-2.6
			S16.6,160,16.6,158.8z M16.9,158.2H17c0-0.7,0.2-1.3,0.5-2c0.3-0.7,0.7-1.3,1.2-1.9c0.6-0.6,1.3-1.1,2.3-1.4s2.1-0.5,3.4-0.5
			c0.9,0,1.7,0.1,2.5,0.3c0.8,0.2,1.5,0.5,2.2,1c0.7,0.5,1.2,1.1,1.7,1.8c0.4,0.7,0.7,1.6,0.8,2.7h0.1c0-0.9-0.2-1.7-0.6-2.5
			c-0.3-0.8-0.8-1.5-1.4-2.1c-0.6-0.6-1.4-1.1-2.3-1.5s-1.9-0.5-3-0.5c-1.2,0-2.3,0.2-3.2,0.6c-0.9,0.4-1.7,0.9-2.3,1.5
			s-1.1,1.3-1.4,2.1C17.1,156.6,16.9,157.4,16.9,158.2z M17,159.2h-0.1c0,1,0.2,1.9,0.6,2.8c0.4,0.9,1,1.7,1.6,2.4
			c0.7,0.7,1.5,1.2,2.4,1.6c0.9,0.4,1.8,0.6,2.8,0.6c1.2,0,2.3-0.3,3.5-1c1.1-0.6,2-1.5,2.7-2.7c0.7-1.1,1.1-2.4,1.1-3.8h-0.1
			c-0.1,1.3-0.5,2.5-1.2,3.5c-0.7,1-1.6,1.8-2.6,2.3s-2.1,0.8-3.3,0.8c-0.9,0-1.8-0.2-2.7-0.5s-1.6-0.8-2.3-1.3s-1.2-1.3-1.6-2.1
			C17.4,161.1,17.1,160.2,17,159.2z M17.3,158.7c0,1.1,0.3,2,0.8,2.9s1.4,1.6,2.4,2.1c1,0.5,2.3,0.8,3.7,0.8c1.5,0,2.8-0.3,3.9-0.9
			c1.1-0.6,1.8-1.3,2.3-2.2c0.5-0.9,0.8-1.8,0.8-2.8c0-0.8-0.2-1.5-0.5-2.2c-0.3-0.7-0.7-1.3-1.3-1.9c-0.6-0.6-1.3-1-2.1-1.3
			c-0.8-0.3-1.8-0.5-2.8-0.5c-1.4,0-2.6,0.2-3.4,0.5s-1.6,0.8-2.2,1.4c-0.5,0.5-0.9,1.2-1.2,1.8C17.5,157.3,17.3,158,17.3,158.7z"/>
		<path class="st2" d="M16.6,140.2c0-1.5,0.2-2.7,0.7-3.8s1.1-1.9,1.9-2.6c0.8-0.7,1.6-1.2,2.5-1.5c0.9-0.3,1.7-0.5,2.5-0.5
			c0.9,0,1.8,0.2,2.7,0.5c0.9,0.4,1.7,0.9,2.5,1.6c0.7,0.7,1.3,1.6,1.8,2.6c0.4,1,0.7,2.2,0.7,3.5c0,1.8-0.4,3.4-1.2,4.7
			c-0.8,1.3-1.8,2.2-3,2.8c-1.2,0.6-2.3,0.9-3.4,0.9c-1,0-2-0.2-2.9-0.6s-1.8-0.9-2.5-1.7c-0.7-0.7-1.3-1.6-1.7-2.6
			S16.6,141.4,16.6,140.2z M16.9,139.6H17c0-0.7,0.2-1.3,0.5-2c0.3-0.7,0.7-1.3,1.2-1.9c0.6-0.6,1.3-1.1,2.3-1.4s2.1-0.5,3.4-0.5
			c0.9,0,1.7,0.1,2.5,0.3c0.8,0.2,1.5,0.5,2.2,1c0.7,0.5,1.2,1.1,1.7,1.8c0.4,0.7,0.7,1.6,0.8,2.7h0.1c0-0.9-0.2-1.7-0.6-2.5
			c-0.3-0.8-0.8-1.5-1.4-2.1c-0.6-0.6-1.4-1.1-2.3-1.5s-1.9-0.5-3-0.5c-1.2,0-2.3,0.2-3.2,0.6c-0.9,0.4-1.7,0.9-2.3,1.5
			s-1.1,1.3-1.4,2.1C17.1,138,16.9,138.8,16.9,139.6z M17,140.6h-0.1c0,1,0.2,1.9,0.6,2.8c0.4,0.9,1,1.7,1.6,2.4
			c0.7,0.7,1.5,1.2,2.4,1.6c0.9,0.4,1.8,0.6,2.8,0.6c1.2,0,2.3-0.3,3.5-1c1.1-0.6,2-1.5,2.7-2.7c0.7-1.1,1.1-2.4,1.1-3.8h-0.1
			c-0.1,1.3-0.5,2.5-1.2,3.5c-0.7,1-1.6,1.8-2.6,2.3s-2.1,0.8-3.3,0.8c-0.9,0-1.8-0.2-2.7-0.5s-1.6-0.8-2.3-1.3s-1.2-1.3-1.6-2.1
			C17.4,142.5,17.1,141.6,17,140.6z M17.3,140.2c0,1.1,0.3,2,0.8,2.9s1.4,1.6,2.4,2.1c1,0.5,2.3,0.8,3.7,0.8c1.5,0,2.8-0.3,3.9-0.9
			c1.1-0.6,1.8-1.3,2.3-2.2c0.5-0.9,0.8-1.8,0.8-2.8c0-0.8-0.2-1.5-0.5-2.2c-0.3-0.7-0.7-1.3-1.3-1.9c-0.6-0.6-1.3-1-2.1-1.3
			c-0.8-0.3-1.8-0.5-2.8-0.5c-1.4,0-2.6,0.2-3.4,0.5s-1.6,0.8-2.2,1.4c-0.5,0.5-0.9,1.2-1.2,1.8C17.5,138.7,17.3,139.4,17.3,140.2z"
			/>
		<path class="st2" d="M31.7,122.8h0.1v7.7h-0.1l-0.3-2.3c-0.6-0.1-1.3-0.2-2.1-0.2c-0.8-0.1-1.6-0.1-2.3-0.1c-0.8,0-1.4,0-2.1,0
			h-2.9c-0.8,0-1.7,0-2.6,0.1c-0.9,0.1-1.7,0.1-2.2,0.2l-0.4,2.4h-0.1v-7.7h0.1l0.4,2.7c0.5,0.1,1.2,0.1,2,0.2
			c0.8,0,1.4,0.1,1.8,0.1h2.6c-0.3-0.5-0.7-1-1.2-1.6c-0.5-0.6-1.1-1.2-1.8-2c-1.4-1.5-2.5-2.6-3.4-3.3l-0.4,2.4h-0.1v-5.9h0.1
			l0.4,2c0.1,0.2,0.4,0.5,0.7,0.9s0.8,0.9,1.3,1.5s1.1,1.2,1.7,1.8s1.1,1.2,1.4,1.5c0.7-0.4,1.5-1,2.5-1.9l2.8-2.3
			c1.6-1.3,2.8-2.5,3.7-3.5l0.4-1.9h0.1v7.2h-0.1l-0.4-1.9c-0.7,0.4-1.5,1-2.4,1.6c-0.9,0.7-1.8,1.4-2.7,2.1
			c-0.9,0.8-1.7,1.4-2.4,2.1l0.9,1h2.2c0.4,0,1.1,0,2.1-0.1c1-0.1,1.7-0.1,2.2-0.2L31.7,122.8z M17.2,127.6h14.2v-0.7H17.2V127.6z
			 M23.2,124.1l0.5,0.5l7.8-6.4v-0.9L23.2,124.1z"/>
		<path class="st2" d="M16.9,105.1h-0.1v-5.2c0.5-0.3,1-0.8,1.7-1.3c0.7-0.5,1.2-1,1.7-1.5l5.1-4.6c0.7-0.6,1.2-1.1,1.5-1.4
			c0.4-0.3,0.8-0.8,1.3-1.3c-0.5,0-0.9-0.1-1.3-0.1s-0.8,0-1.2,0h-4.4c-1.6,0-2.9,0.1-3.9,0.2l-0.4,2.5h-0.1v-6.1h0.1l0.4,2.5
			c1,0.1,2.2,0.2,3.7,0.2h11.2v0.1c-1.3,1-2.6,2.1-3.7,3.1l-7,6.3c-1,0.9-1.8,1.7-2.4,2.4c0.9,0.1,1.8,0.1,2.6,0.1h6.5
			c0.9,0,1.9-0.1,3.1-0.2l0.4-2.6h0.1v6.2h-0.1l-0.4-2.5c-0.5-0.1-1.2-0.1-2.1-0.2s-1.7-0.1-2.4-0.1h-5c-0.6,0-1.2,0-1.8,0
			c-0.6,0-1.2,0.1-1.7,0.1l-1,1.4L16.9,105.1z M17.2,102L31,89.6h-1l-12.8,11.5V102z"/>
		<path class="st2" d="M16.6,76.7c0-1.5,0.2-2.7,0.7-3.8s1.1-1.9,1.9-2.6c0.8-0.7,1.6-1.2,2.5-1.5c0.9-0.3,1.7-0.5,2.5-0.5
			c0.9,0,1.8,0.2,2.7,0.5c0.9,0.4,1.7,0.9,2.5,1.6c0.7,0.7,1.3,1.6,1.8,2.6c0.4,1,0.7,2.2,0.7,3.5c0,1.8-0.4,3.4-1.2,4.7
			c-0.8,1.3-1.8,2.2-3,2.8c-1.2,0.6-2.3,0.9-3.4,0.9c-1,0-2-0.2-2.9-0.6s-1.8-0.9-2.5-1.7c-0.7-0.7-1.3-1.6-1.7-2.6
			S16.6,77.9,16.6,76.7z M16.9,76.1H17c0-0.7,0.2-1.3,0.5-2c0.3-0.7,0.7-1.3,1.2-1.9c0.6-0.6,1.3-1.1,2.3-1.4s2.1-0.5,3.4-0.5
			c0.9,0,1.7,0.1,2.5,0.3c0.8,0.2,1.5,0.5,2.2,1c0.7,0.5,1.2,1.1,1.7,1.8s0.7,1.6,0.8,2.7h0.1c0-0.9-0.2-1.7-0.6-2.5
			c-0.3-0.8-0.8-1.5-1.4-2.1c-0.6-0.6-1.4-1.1-2.3-1.5s-1.9-0.5-3-0.5c-1.2,0-2.3,0.2-3.2,0.6c-0.9,0.4-1.7,0.9-2.3,1.5
			s-1.1,1.3-1.4,2.1C17.1,74.5,16.9,75.3,16.9,76.1z M17,77.1h-0.1c0,1,0.2,1.9,0.6,2.8s1,1.7,1.6,2.4s1.5,1.2,2.4,1.6
			c0.9,0.4,1.8,0.6,2.8,0.6c1.2,0,2.3-0.3,3.5-1c1.1-0.6,2-1.5,2.7-2.7s1.1-2.4,1.1-3.8h-0.1c-0.1,1.3-0.5,2.5-1.2,3.5
			s-1.6,1.8-2.6,2.3s-2.1,0.8-3.3,0.8c-0.9,0-1.8-0.2-2.7-0.5s-1.6-0.8-2.3-1.3s-1.2-1.3-1.6-2.1C17.4,79,17.1,78.1,17,77.1z
			 M17.3,76.7c0,1.1,0.3,2,0.8,2.9s1.4,1.6,2.4,2.1c1,0.5,2.3,0.8,3.7,0.8c1.5,0,2.8-0.3,3.9-0.9c1.1-0.6,1.8-1.3,2.3-2.2
			c0.5-0.9,0.8-1.8,0.8-2.8c0-0.8-0.2-1.5-0.5-2.2s-0.7-1.3-1.3-1.9c-0.6-0.6-1.3-1-2.1-1.3c-0.8-0.3-1.8-0.5-2.8-0.5
			c-1.4,0-2.6,0.2-3.4,0.5s-1.6,0.8-2.2,1.4c-0.5,0.5-0.9,1.2-1.2,1.8C17.5,75.2,17.3,75.9,17.3,76.7z"/>
		<path class="st2" d="M16.9,59.4l0.4,2.9c0.5,0,1.2-0.1,2.1-0.3c0.9-0.2,1.8-0.4,2.5-0.6l3.4-1c0.8-0.2,1.6-0.5,2.4-0.8
			c-1.3-0.6-2.5-1.1-3.4-1.5L20,56.5c-1.6-0.6-2.7-1-3.3-1.2v-0.2c0.2-0.1,0.6-0.2,1.2-0.5c0.6-0.2,1.2-0.5,1.7-0.7l5.4-2.5
			c0.9-0.4,1.9-0.9,3-1.4c-0.5-0.2-1.6-0.6-3.1-1l-4.1-1.2c-0.5-0.2-1.1-0.3-1.8-0.4s-1.2-0.2-1.8-0.3l-0.3,3h-0.1v-6h0.1l0.4,1.8
			c0.5,0.2,1.1,0.4,1.7,0.7s1.3,0.4,2,0.6l6.3,1.8c1.1,0.3,2,0.6,2.9,0.8c0.9,0.2,1.6,0.4,2,0.5v0.2c-0.2,0.1-0.5,0.2-0.8,0.3
			c-0.3,0.1-0.6,0.2-0.8,0.3s-0.4,0.2-0.7,0.3c-0.3,0.1-0.6,0.2-0.8,0.4l-6.4,2.9c-1.2,0.6-2,1-2.3,1.1c0.2,0.1,0.6,0.4,1.3,0.6
			c0.6,0.3,1,0.4,1.1,0.5l5.9,2.4c0.4,0.2,0.8,0.3,1.1,0.4c0.3,0.1,0.7,0.3,1.1,0.4c0.4,0.1,0.8,0.3,1.3,0.5v0.2
			c-0.7,0.1-2,0.4-3.8,0.9l-6.8,1.9c-1.6,0.5-3,1-4.3,1.5l-0.4,1.8h-0.1v-7.5H16.9z M17.2,64.6l13.4-3.8v0l-1-0.3l-12.4,3.5V64.6z
			 M18.9,55.4l0.8,0.3l11-5l-0.9-0.3L18.9,55.4z"/>
	</g>
	<g id="Path_71">
		<polygon class="st2" points="27.7,35 18.2,25.9 27.8,17.1 29.8,19.3 22.6,25.9 29.8,32.8 		"/>
	</g>
</g>
</svg>
