<svg xmlns="http://www.w3.org/2000/svg" width="34" height="29.143" viewBox="0 0 34 29.143">
  <path id="Path_80" data-name="Path 80" d="M17.436-12.921a.591.591,0,0,0,.171-.436.591.591,0,0,0-.171-.436A.591.591,0,0,0,17-13.964a2.923,2.923,0,0,0-2.144.892,2.923,2.923,0,0,0-.892,2.144.591.591,0,0,0,.171.436.591.591,0,0,0,.436.171.591.591,0,0,0,.436-.171.591.591,0,0,0,.171-.436,1.757,1.757,0,0,1,.531-1.29A1.757,1.757,0,0,1,17-12.75.591.591,0,0,0,17.436-12.921Zm3-1.4a4.68,4.68,0,0,1,1.423,3.434,4.68,4.68,0,0,1-1.423,3.434A4.68,4.68,0,0,1,17-6.033a4.68,4.68,0,0,1-3.434-1.423,4.68,4.68,0,0,1-1.423-3.434,4.68,4.68,0,0,1,1.423-3.434A4.68,4.68,0,0,1,17-15.748,4.68,4.68,0,0,1,20.434-14.325ZM2.429,0H31.571V-2.429H2.429ZM22.142-5.73a7.035,7.035,0,0,0,2.144-5.161,7.019,7.019,0,0,0-2.134-5.151A7.019,7.019,0,0,0,17-18.176a7.019,7.019,0,0,0-5.151,2.134,7.019,7.019,0,0,0-2.134,5.151,7.019,7.019,0,0,0,2.134,5.151A7.019,7.019,0,0,0,17-3.6,7,7,0,0,0,22.142-5.73ZM4.857-23.071h7.286V-25.5H4.857ZM2.429-19.429H31.571v-4.857H15.862l-1.214,2.429H2.429ZM34-24.286V0a2.34,2.34,0,0,1-.711,1.717,2.34,2.34,0,0,1-1.717.711H2.429A2.34,2.34,0,0,1,.711,1.717,2.34,2.34,0,0,1,0,0V-24.286A2.34,2.34,0,0,1,.711-26a2.34,2.34,0,0,1,1.717-.711H31.571A2.34,2.34,0,0,1,33.289-26,2.34,2.34,0,0,1,34-24.286Z" transform="translate(0 26.714)" fill="#4b858e"/>
</svg>
