<svg xmlns="http://www.w3.org/2000/svg" width="29.143" height="29.143" viewBox="0 0 29.143 29.143">
  <path id="Path_77" data-name="Path 77" d="M4.5-2.315H8.879V-15.482H4.5ZM9.164-19.542a2.242,2.242,0,0,0-.683-1.632,2.424,2.424,0,0,0-1.765-.645,2.525,2.525,0,0,0-1.793.645,2.134,2.134,0,0,0-.693,1.632A2.171,2.171,0,0,0,4.9-17.92a2.412,2.412,0,0,0,1.755.655h.019a2.5,2.5,0,0,0,1.8-.655A2.156,2.156,0,0,0,9.164-19.542Zm11.1,17.228h4.383V-9.866a6.3,6.3,0,0,0-1.385-4.421,4.749,4.749,0,0,0-3.662-1.5,4.411,4.411,0,0,0-3.965,2.22h.038v-1.916H11.289q.057,1.252,0,13.167h4.383V-9.676a3.138,3.138,0,0,1,.133-1.063,2.929,2.929,0,0,1,.854-1.129,2.147,2.147,0,0,1,1.4-.465q2.2,0,2.2,2.979ZM29.143-21.25V-3.036A5.263,5.263,0,0,1,27.54.825a5.263,5.263,0,0,1-3.861,1.6H5.464A5.263,5.263,0,0,1,1.6.825,5.263,5.263,0,0,1,0-3.036V-21.25a5.263,5.263,0,0,1,1.6-3.861,5.263,5.263,0,0,1,3.861-1.6H23.679a5.263,5.263,0,0,1,3.861,1.6A5.263,5.263,0,0,1,29.143-21.25Z" transform="translate(0 26.714)" fill="#4b858e"/>
</svg>
