<svg xmlns="http://www.w3.org/2000/svg" width="43.715" height="27.815" viewBox="0 0 43.715 27.815">
  <path id="Path_76" data-name="Path 76" d="M27.265-11.82a14.66,14.66,0,0,1-1.651,7.03A11.9,11.9,0,0,1,20.908.028a13.919,13.919,0,0,1-7,1.736A13.644,13.644,0,0,1,8.5.664,13.928,13.928,0,0,1,4.06-2.3,13.928,13.928,0,0,1,1.1-6.735,13.644,13.644,0,0,1,0-12.143,13.644,13.644,0,0,1,1.1-17.55a13.928,13.928,0,0,1,2.96-4.44A13.928,13.928,0,0,1,8.5-24.95a13.644,13.644,0,0,1,5.407-1.1,13.151,13.151,0,0,1,9.316,3.643l-3.776,3.624a7.659,7.659,0,0,0-5.54-2.144,8.308,8.308,0,0,0-4.316,1.176,8.653,8.653,0,0,0-3.14,3.2,8.722,8.722,0,0,0-1.157,4.411A8.722,8.722,0,0,0,6.451-7.732a8.653,8.653,0,0,0,3.14,3.2,8.308,8.308,0,0,0,4.316,1.176A9.164,9.164,0,0,0,16.8-3.795a7.341,7.341,0,0,0,2.172-1.091,7.909,7.909,0,0,0,1.489-1.489,6.8,6.8,0,0,0,.93-1.575,7.042,7.042,0,0,0,.408-1.4H13.907v-4.781H27.037A12.364,12.364,0,0,1,27.265-11.82Zm16.45-2.315v3.984H39.749v3.965H35.765v-3.965H31.8v-3.984h3.965V-18.1h3.984v3.965Z" transform="translate(0 26.05)" fill="#4b858e"/>
</svg>
