<svg xmlns="http://www.w3.org/2000/svg" width="43.713" height="25.652" viewBox="0 0 43.713 25.652">
  <path id="Path_78" data-name="Path 78" d="M49.072-10.227a1.719,1.719,0,0,1-.522,1.262,1.7,1.7,0,0,1-1.243.522,1.719,1.719,0,0,1-1.262-.522,1.719,1.719,0,0,1-.522-1.262,1.7,1.7,0,0,1,.522-1.243,1.719,1.719,0,0,1,1.262-.522,1.7,1.7,0,0,1,1.243.522A1.7,1.7,0,0,1,49.072-10.227ZM70.435-11.5a1.673,1.673,0,0,1,.531,1.252,1.719,1.719,0,0,1-.522,1.262,1.719,1.719,0,0,1-1.262.522,1.719,1.719,0,0,1-1.262-.522,1.719,1.719,0,0,1-.522-1.262,1.688,1.688,0,0,1,.522-1.252,1.735,1.735,0,0,1,1.262-.512A1.7,1.7,0,0,1,70.435-11.5Zm-19.2,1.271a3.538,3.538,0,0,0-1.072-2.58,3.513,3.513,0,0,0-2.59-1.081,3.529,3.529,0,0,0-2.59,1.072,3.529,3.529,0,0,0-1.072,2.59,3.529,3.529,0,0,0,1.072,2.59,3.529,3.529,0,0,0,2.59,1.072,3.529,3.529,0,0,0,2.59-1.072A3.529,3.529,0,0,0,51.235-10.227Zm20.795,2.58a3.544,3.544,0,0,0,1.081-2.6,3.529,3.529,0,0,0-1.072-2.59,3.529,3.529,0,0,0-2.59-1.072,3.538,3.538,0,0,0-2.58,1.072,3.513,3.513,0,0,0-1.081,2.59,3.529,3.529,0,0,0,1.072,2.59,3.529,3.529,0,0,0,2.59,1.072A3.513,3.513,0,0,0,72.029-7.646Zm-19.182-2.58A5.1,5.1,0,0,1,51.3-6.479a5.081,5.081,0,0,1-3.728,1.546,5.088,5.088,0,0,1-3.747-1.556,5.112,5.112,0,0,1-1.546-3.738,5.066,5.066,0,0,1,1.556-3.728A5.112,5.112,0,0,1,47.573-15.5,5.081,5.081,0,0,1,51.3-13.955,5.081,5.081,0,0,1,52.847-10.227Zm20.339-3.738a5.035,5.035,0,0,1,1.556,3.719A5.081,5.081,0,0,1,73.2-6.517a5.1,5.1,0,0,1-3.747,1.546,5.081,5.081,0,0,1-3.728-1.546,5.081,5.081,0,0,1-1.546-3.728,5.081,5.081,0,0,1,1.546-3.728,5.081,5.081,0,0,1,3.728-1.546A5.057,5.057,0,0,1,73.187-13.964ZM53.872-3.984a8.459,8.459,0,0,0,2.58-6.2,8.443,8.443,0,0,0-2.571-6.195,8.443,8.443,0,0,0-6.195-2.571A8.527,8.527,0,0,0,43.3-17.778a8.731,8.731,0,0,0-3.187,3.2,8.578,8.578,0,0,0-1.176,4.392A8.578,8.578,0,0,0,40.116-5.8,8.731,8.731,0,0,0,43.3-2.6a8.527,8.527,0,0,0,4.383,1.176A8.428,8.428,0,0,0,53.872-3.984ZM69.126-21.06a26.057,26.057,0,0,0-10.549-2.106,27.1,27.1,0,0,0-10.872,2.087,10.615,10.615,0,0,1,4.231.863A10.858,10.858,0,0,1,55.4-17.892a11.054,11.054,0,0,1,2.315,3.472,10.615,10.615,0,0,1,.863,4.231,10.73,10.73,0,0,1,.825-4.165,10.716,10.716,0,0,1,2.239-3.425,11.133,11.133,0,0,1,3.368-2.334A10.482,10.482,0,0,1,69.126-21.06ZM75.653-3.984a8.491,8.491,0,0,0,2.561-6.2,8.459,8.459,0,0,0-2.561-6.195,8.412,8.412,0,0,0-6.185-2.571,8.443,8.443,0,0,0-6.195,2.571A8.443,8.443,0,0,0,60.7-10.189a8.443,8.443,0,0,0,2.571,6.195,8.443,8.443,0,0,0,6.195,2.571A8.428,8.428,0,0,0,75.653-3.984ZM73.168-20.927h7.267a10.068,10.068,0,0,0-1.423,2.172,8.371,8.371,0,0,0-.759,2.172,10.6,10.6,0,0,1,2.087,6.394,10.653,10.653,0,0,1-1.461,5.464A10.767,10.767,0,0,1,74.913-.768,10.671,10.671,0,0,1,69.468.683,10.725,10.725,0,0,1,64.743-.379,10.7,10.7,0,0,1,61.025-3.32a41.646,41.646,0,0,0-2.448,3.4,15.69,15.69,0,0,0-1.015-1.565q-.806-1.148-1.414-1.85A10.774,10.774,0,0,1,52.42-.389,10.706,10.706,0,0,1,47.687.683,10.671,10.671,0,0,1,42.241-.768a10.767,10.767,0,0,1-3.965-3.956,10.653,10.653,0,0,1-1.461-5.464A10.6,10.6,0,0,1,38.9-16.583a8.371,8.371,0,0,0-.759-2.172,10.069,10.069,0,0,0-1.423-2.172h6.925A22.843,22.843,0,0,1,50.381-23.9a30.853,30.853,0,0,1,8.2-1.072,29.093,29.093,0,0,1,7.988,1.063A23.19,23.19,0,0,1,73.168-20.927Z" transform="translate(-36.721 24.969)" fill="#4b858e"/>
</svg>
